<svg enable-background="new 0 0 64 64" viewBox="0 0 64 64" xmlns="http://www.w3.org/2000/svg"><g><path d="m1 61h62v2h-62z"/><path d="m5 25h1v4h2v-4h1c.553 0 1-.448 1-1v-14c0-.552-.447-1-1-1h-1v-4h-2v4h-1c-.553 0-1 .448-1 1v14c0 .552.447 1 1 1zm1-14h2v12h-2z"/><path d="m15 35h1v4h2v-4h1c.553 0 1-.447 1-1v-14c0-.552-.447-1-1-1h-1v-4h-2v4h-1c-.553 0-1 .448-1 1v14c0 .553.447 1 1 1zm1-14h2v12h-2z"/><path d="m25 21h1v4h2v-4h1c.553 0 1-.448 1-1v-14c0-.552-.447-1-1-1h-1v-4h-2v4h-1c-.553 0-1 .448-1 1v14c0 .552.447 1 1 1zm1-14h2v12h-2z"/><path d="m35 43h1v4h2v-4h1c.553 0 1-.447 1-1v-14c0-.552-.447-1-1-1h-1v-4h-2v4h-1c-.553 0-1 .448-1 1v14c0 .553.447 1 1 1zm1-14h2v12h-2z"/><path d="m45 21h1v4h2v-4h1c.553 0 1-.448 1-1v-14c0-.552-.447-1-1-1h-1v-4h-2v4h-1c-.553 0-1 .448-1 1v14c0 .552.447 1 1 1zm1-14h2v12h-2z"/><path d="m55 25h1v4h2v-4h1c.553 0 1-.448 1-1v-14c0-.552-.447-1-1-1h-1v-4h-2v4h-1c-.553 0-1 .448-1 1v14c0 .552.447 1 1 1zm1-14h2v12h-2z"/><path d="m5 57c2.206 0 4-1.794 4-4 0-.124-.026-.242-.037-.363l12.745-6.372c.722 1.046 1.927 1.735 3.292 1.735 1.283 0 2.413-.617 3.146-1.559l5.381 4.612c-.326.579-.527 1.237-.527 1.947 0 2.206 1.794 4 4 4s4-1.794 4-4c0-.173-.03-.337-.051-.504l15.974-14.094c.607.372 1.314.598 2.077.598 2.206 0 4-1.794 4-4s-1.794-4-4-4-4 1.794-4 4c0 .716.204 1.378.534 1.96l-15.398 13.587c-.733-.935-1.859-1.547-3.136-1.547-.769 0-1.481.228-2.091.606l-5.959-5.108c.02-.165.05-.328.05-.498 0-2.206-1.794-4-4-4s-4 1.794-4 4c0 .124.026.242.037.363l-12.745 6.373c-.722-1.047-1.927-1.736-3.292-1.736-2.206 0-4 1.794-4 4s1.794 4 4 4zm54-24c1.103 0 2 .897 2 2s-.897 2-2 2-2-.897-2-2 .897-2 2-2zm-20 20c0 1.103-.897 2-2 2s-2-.897-2-2 .897-2 2-2 2 .897 2 2zm-14-11c1.103 0 2 .897 2 2s-.897 2-2 2-2-.897-2-2 .897-2 2-2zm-20 9c1.103 0 2 .897 2 2s-.897 2-2 2-2-.897-2-2 .897-2 2-2z"/></g></svg>