<svg id="Layer_1" data-name="Layer 1" xmlns="http://www.w3.org/2000/svg" xmlns:xlink="http://www.w3.org/1999/xlink" viewBox="0 0 450.62 51.77"><defs><style>.cls-1{fill:url(#linear-gradient);}</style><linearGradient id="linear-gradient" x1="129.32" y1="185.59" x2="296.98" y2="-110.24" gradientUnits="userSpaceOnUse"><stop offset="0" stop-color="#fff"/><stop offset="0.02" stop-color="#effafe"/><stop offset="0.12" stop-color="#a7e3fa"/><stop offset="0.22" stop-color="#6cd0f6"/><stop offset="0.31" stop-color="#3dc1f3"/><stop offset="0.38" stop-color="#1cb7f1"/><stop offset="0.45" stop-color="#07b0ef"/><stop offset="0.49" stop-color="#00aeef"/><stop offset="0.64" stop-color="#02afef" stop-opacity="0.99"/><stop offset="0.71" stop-color="#0ab1f0" stop-opacity="0.96"/><stop offset="0.76" stop-color="#18b6f1" stop-opacity="0.9"/><stop offset="0.81" stop-color="#2cbcf2" stop-opacity="0.83"/><stop offset="0.85" stop-color="#46c4f3" stop-opacity="0.73"/><stop offset="0.89" stop-color="#66cef5" stop-opacity="0.6"/><stop offset="0.92" stop-color="#8bdaf8" stop-opacity="0.45"/><stop offset="0.96" stop-color="#b7e8fa" stop-opacity="0.28"/><stop offset="0.99" stop-color="#e7f7fe" stop-opacity="0.09"/><stop offset="1" stop-color="#fff" stop-opacity="0"/></linearGradient></defs><path class="cls-1" d="M92.27,43c-.21,3.31-4.59,5.29-7,6.39a23.71,23.71,0,0,1-10.62,2.07c-2.87-.11-13.28-.54-20.51-9.1a26.21,26.21,0,0,1-5.67-12.61,24.32,24.32,0,0,1-.25-4h9.16a17.31,17.31,0,0,0,3.14,9.09,17.64,17.64,0,0,0,13.73,7.27c7.78.09,12-6,15.81-3.6A5.1,5.1,0,0,1,92.27,43ZM60.51,16.68A17.59,17.59,0,0,1,74.23,9.42c7.79-.09,12,6,15.81,3.59a5.08,5.08,0,0,0,2.23-4.47c-.22-3.31-4.59-5.29-7-6.39A23.75,23.75,0,0,0,74.64.08c-2.87.11-13.29.54-20.52,9.1a26.31,26.31,0,0,0-5.67,12.61,25.64,25.64,0,0,0-.25,4h9.16A17.2,17.2,0,0,1,60.51,16.68ZM145.3,4.15a4.6,4.6,0,0,0-4.23-2.6A4.89,4.89,0,0,0,136.75,4a2.9,2.9,0,0,0-.4,1.49V22.06h-20.3V5.52A2.89,2.89,0,0,0,115.66,4a4.89,4.89,0,0,0-4.32-2.48,4.6,4.6,0,0,0-4.23,2.6,2.9,2.9,0,0,0-.33,1.35l-.15,41a2.45,2.45,0,0,0,.06.6,4.22,4.22,0,0,0,4.49,3.41c2.91,0,4.12-1.54,4.59-2.52a2.87,2.87,0,0,0,.29-1.26L116.13,31h0l10.8,0h9.36l.07,15.75a2.74,2.74,0,0,0,.29,1.26c.47,1,1.68,2.52,4.58,2.52a4.22,4.22,0,0,0,4.5-3.41,2.45,2.45,0,0,0,.06-.6l-.15-41A2.9,2.9,0,0,0,145.3,4.15Zm65.57,21.73A25.88,25.88,0,1,1,185,0,25.88,25.88,0,0,1,210.87,25.88Zm-10,0A15.84,15.84,0,1,0,185,41.73,15.84,15.84,0,0,0,200.87,25.89ZM29,25.83c-1-.66-3.9-1.81-9.73-4.12-5.41-2.14-8-3.05-8.86-5.51a5.39,5.39,0,0,1,.08-3.59c1.3-3.13,6-4.38,9.41-3.73a17.56,17.56,0,0,1,6.78,3.21,6.88,6.88,0,0,0,3.45,1.8,4.12,4.12,0,0,0,3.16-.73c1.76-1.51,1-4.58.89-4.81-.22-.79-.91-2.64-4.61-4.84A21.84,21.84,0,0,0,16.84.14c-2.83.15-8,.44-12,4.46S-.76,15,1.52,19.88a12,12,0,0,0,2.8,3.59c2.89,2.81,5.37,3.38,13.23,6.47,6.9,2.7,8.91,3.8,9.52,5.9a5.47,5.47,0,0,1-.42,3.91,6.69,6.69,0,0,1-4.28,3c-3.74,1-5.6-1.31-7.91.15-1.32.84-2.59,2.45-2.22,3.91a5.55,5.55,0,0,0,3.53,4c2.8,1.33,10.18,1.63,14.63-1.61.51-.37,7.32-5.5,6.07-13.38C35.58,30.25,30.83,27.08,29,25.83ZM4.51,36.35A4.51,4.51,0,1,0,9,40.86,4.51,4.51,0,0,0,4.51,36.35Zm247.41,5.23a2.35,2.35,0,0,0-.69-.1H234v-36a3.23,3.23,0,0,0-.5-1.74,4.68,4.68,0,0,0-4.08-2.25,4.87,4.87,0,0,0-4.16,2.31,3.36,3.36,0,0,0-.54,1.85V47.25a3.31,3.31,0,0,0,3.31,3.3h23.52a2.28,2.28,0,0,0,.73-.12,4.24,4.24,0,0,0,3-4.17A4.64,4.64,0,0,0,251.92,41.58Zm53-4.32a4.88,4.88,0,0,1-3.38,1.49H278.1l-4.49,8.81A5.52,5.52,0,0,1,271,50.11a4.48,4.48,0,0,1-4,.19,4.74,4.74,0,0,1-2.32-3,4,4,0,0,1,.24-2.86L284.19,3.82A4.06,4.06,0,0,1,285.79,2a4.86,4.86,0,0,1,2.49-.69,4.41,4.41,0,0,1,2.37.69,4.22,4.22,0,0,1,1.53,1.79l13.7,28.75S306.82,35.43,304.88,37.26Zm-10-6.74-6.7-13.27-6.34,13.27Zm12.42,10.73a4.52,4.52,0,1,0,4.52,4.51A4.51,4.51,0,0,0,307.31,41.25ZM362,44.4a4,4,0,0,1,.49,3,3.77,3.77,0,0,1-1.94,2.56,5.07,5.07,0,0,1-3.08.53A3.72,3.72,0,0,1,355,48.84L344.5,33.19H334V46.31a3.66,3.66,0,0,1-.79,2.29,4.81,4.81,0,0,1-3.75,1.91,4.24,4.24,0,0,1-2.9-1.12,4.61,4.61,0,0,1-1.5-3.48l.23-40.12a4.35,4.35,0,0,1,4.37-4.33l17.58,0a16.62,16.62,0,0,1,4.64,1.24c2.8,1.54,9.28,4.53,9.28,14a16.41,16.41,0,0,1-7.47,13.81ZM351.61,17.69c0-7-6-7.1-6-7.1l-11.55-.09v15h11.6S351.61,24.66,351.61,17.69Zm54.68,23.85a2.24,2.24,0,0,0-.68-.1H388.39v-36a3.22,3.22,0,0,0-.5-1.73,4.67,4.67,0,0,0-4.08-2.25,4.85,4.85,0,0,0-4.16,2.31,3.36,3.36,0,0,0-.54,1.85V47.2a3.29,3.29,0,0,0,3.31,3.3h23.52a2.17,2.17,0,0,0,.72-.11,4.24,4.24,0,0,0,3-4.17A4.61,4.61,0,0,0,406.29,41.54Zm34.76-27.38a4.11,4.11,0,0,0-2.48-.8,4.84,4.84,0,0,0-3.94,2.14l-3.82,5.44-11.14-17A5,5,0,0,0,415,1.61a3.82,3.82,0,0,0-2,.81,4.58,4.58,0,0,0-1,1.08A5.23,5.23,0,0,0,412.17,9l13.9,21.81V45.56A5.1,5.1,0,0,0,428,49.65a4.5,4.5,0,0,0,2.75.91,4.46,4.46,0,0,0,2.75-.9,5,5,0,0,0,1.93-4V31.18l6.5-10.41a5.34,5.34,0,0,0,.63-4.43A4.34,4.34,0,0,0,441.05,14.16Zm4.81-12.64a4.76,4.76,0,1,0,4.76,4.76A4.76,4.76,0,0,0,445.86,1.52Z"/></svg>